<mxfile host="app.diagrams.net" agent="Mozilla/5.0 (Windows NT 10.0; Win64; x64) AppleWebKit/537.36 (KHTML, like Gecko) Chrome/141.0.0.0 Safari/537.36" version="28.2.5">
  <diagram name="Страница — 1" id="eNwxcJPCgBS51UDwuwxv">
    <mxGraphModel grid="1" page="1" gridSize="10" guides="1" tooltips="1" connect="1" arrows="1" fold="1" pageScale="1" pageWidth="827" pageHeight="1169" math="0" shadow="0">
      <root>
        <mxCell id="0" />
        <mxCell id="1" parent="0" />
        <mxCell id="N0fvEVufpxiPiTohuX0A-9" style="edgeStyle=orthogonalEdgeStyle;rounded=0;orthogonalLoop=1;jettySize=auto;html=1;exitX=0.75;exitY=1;exitDx=0;exitDy=0;entryX=0;entryY=0.25;entryDx=0;entryDy=0;" edge="1" parent="1" source="N0fvEVufpxiPiTohuX0A-2" target="N0fvEVufpxiPiTohuX0A-8">
          <mxGeometry relative="1" as="geometry" />
        </mxCell>
        <mxCell id="N0fvEVufpxiPiTohuX0A-19" style="edgeStyle=orthogonalEdgeStyle;rounded=0;orthogonalLoop=1;jettySize=auto;html=1;" edge="1" parent="1" source="N0fvEVufpxiPiTohuX0A-2" target="N0fvEVufpxiPiTohuX0A-17">
          <mxGeometry relative="1" as="geometry" />
        </mxCell>
        <mxCell id="N0fvEVufpxiPiTohuX0A-2" value="Authorization" style="rounded=1;whiteSpace=wrap;html=1;" vertex="1" parent="1">
          <mxGeometry x="385" y="200" width="100" height="30" as="geometry" />
        </mxCell>
        <mxCell id="N0fvEVufpxiPiTohuX0A-4" value="" style="edgeStyle=orthogonalEdgeStyle;rounded=0;orthogonalLoop=1;jettySize=auto;html=1;" edge="1" parent="1" source="N0fvEVufpxiPiTohuX0A-3" target="N0fvEVufpxiPiTohuX0A-2">
          <mxGeometry relative="1" as="geometry" />
        </mxCell>
        <mxCell id="N0fvEVufpxiPiTohuX0A-3" value="" style="ellipse;" vertex="1" parent="1">
          <mxGeometry x="420" y="120" width="30" height="30" as="geometry" />
        </mxCell>
        <mxCell id="N0fvEVufpxiPiTohuX0A-10" style="edgeStyle=orthogonalEdgeStyle;rounded=0;orthogonalLoop=1;jettySize=auto;html=1;entryX=1;entryY=0.5;entryDx=0;entryDy=0;" edge="1" parent="1" source="N0fvEVufpxiPiTohuX0A-8" target="N0fvEVufpxiPiTohuX0A-2">
          <mxGeometry relative="1" as="geometry">
            <Array as="points">
              <mxPoint x="550" y="215" />
            </Array>
          </mxGeometry>
        </mxCell>
        <mxCell id="N0fvEVufpxiPiTohuX0A-8" value="Registration" style="rounded=1;whiteSpace=wrap;html=1;" vertex="1" parent="1">
          <mxGeometry x="510" y="260" width="100" height="30" as="geometry" />
        </mxCell>
        <mxCell id="N0fvEVufpxiPiTohuX0A-11" value="Statistics" style="rounded=1;whiteSpace=wrap;html=1;" vertex="1" parent="1">
          <mxGeometry x="100" y="540" width="100" height="30" as="geometry" />
        </mxCell>
        <mxCell id="N0fvEVufpxiPiTohuX0A-44" style="edgeStyle=orthogonalEdgeStyle;rounded=0;orthogonalLoop=1;jettySize=auto;html=1;entryX=0.5;entryY=0;entryDx=0;entryDy=0;" edge="1" parent="1" source="N0fvEVufpxiPiTohuX0A-12" target="N0fvEVufpxiPiTohuX0A-42">
          <mxGeometry relative="1" as="geometry" />
        </mxCell>
        <mxCell id="N0fvEVufpxiPiTohuX0A-45" style="edgeStyle=orthogonalEdgeStyle;rounded=0;orthogonalLoop=1;jettySize=auto;html=1;" edge="1" parent="1" source="N0fvEVufpxiPiTohuX0A-12" target="N0fvEVufpxiPiTohuX0A-11">
          <mxGeometry relative="1" as="geometry" />
        </mxCell>
        <mxCell id="N0fvEVufpxiPiTohuX0A-12" value="My Progress" style="rounded=1;whiteSpace=wrap;html=1;" vertex="1" parent="1">
          <mxGeometry x="170" y="470" width="100" height="30" as="geometry" />
        </mxCell>
        <mxCell id="N0fvEVufpxiPiTohuX0A-13" value="AI-assistant" style="rounded=1;whiteSpace=wrap;html=1;" vertex="1" parent="1">
          <mxGeometry x="320" y="450" width="100" height="30" as="geometry" />
        </mxCell>
        <mxCell id="N0fvEVufpxiPiTohuX0A-14" value="Profile" style="rounded=1;whiteSpace=wrap;html=1;" vertex="1" parent="1">
          <mxGeometry x="70" y="350" width="100" height="30" as="geometry" />
        </mxCell>
        <mxCell id="N0fvEVufpxiPiTohuX0A-16" value="Settings" style="rounded=1;whiteSpace=wrap;html=1;" vertex="1" parent="1">
          <mxGeometry x="185" y="280" width="100" height="30" as="geometry" />
        </mxCell>
        <mxCell id="N0fvEVufpxiPiTohuX0A-58" style="edgeStyle=orthogonalEdgeStyle;rounded=0;orthogonalLoop=1;jettySize=auto;html=1;entryX=0;entryY=0.5;entryDx=0;entryDy=0;" edge="1" parent="1" source="N0fvEVufpxiPiTohuX0A-17" target="N0fvEVufpxiPiTohuX0A-55">
          <mxGeometry relative="1" as="geometry" />
        </mxCell>
        <mxCell id="N0fvEVufpxiPiTohuX0A-59" style="edgeStyle=orthogonalEdgeStyle;rounded=0;orthogonalLoop=1;jettySize=auto;html=1;entryX=0;entryY=0.5;entryDx=0;entryDy=0;" edge="1" parent="1" source="N0fvEVufpxiPiTohuX0A-17" target="N0fvEVufpxiPiTohuX0A-56">
          <mxGeometry relative="1" as="geometry" />
        </mxCell>
        <mxCell id="N0fvEVufpxiPiTohuX0A-68" style="edgeStyle=orthogonalEdgeStyle;rounded=0;orthogonalLoop=1;jettySize=auto;html=1;entryX=0;entryY=0.5;entryDx=0;entryDy=0;" edge="1" parent="1" source="N0fvEVufpxiPiTohuX0A-17" target="N0fvEVufpxiPiTohuX0A-67">
          <mxGeometry relative="1" as="geometry" />
        </mxCell>
        <mxCell id="N0fvEVufpxiPiTohuX0A-17" value="Calendar" style="rounded=1;whiteSpace=wrap;html=1;" vertex="1" parent="1">
          <mxGeometry x="320" y="350" width="100" height="30" as="geometry" />
        </mxCell>
        <mxCell id="N0fvEVufpxiPiTohuX0A-20" value="Navigation" style="rhombus;whiteSpace=wrap;html=1;" vertex="1" parent="1">
          <mxGeometry x="200" y="370" width="70" height="50" as="geometry" />
        </mxCell>
        <mxCell id="N0fvEVufpxiPiTohuX0A-33" value="" style="endArrow=classic;startArrow=classic;html=1;rounded=0;exitX=1;exitY=0;exitDx=0;exitDy=0;entryX=0;entryY=0.5;entryDx=0;entryDy=0;" edge="1" parent="1" source="N0fvEVufpxiPiTohuX0A-20" target="N0fvEVufpxiPiTohuX0A-17">
          <mxGeometry width="50" height="50" relative="1" as="geometry">
            <mxPoint x="350" y="310" as="sourcePoint" />
            <mxPoint x="400" y="260" as="targetPoint" />
          </mxGeometry>
        </mxCell>
        <mxCell id="N0fvEVufpxiPiTohuX0A-34" value="" style="endArrow=classic;startArrow=classic;html=1;rounded=0;entryX=0.5;entryY=1;entryDx=0;entryDy=0;" edge="1" parent="1" target="N0fvEVufpxiPiTohuX0A-16">
          <mxGeometry width="50" height="50" relative="1" as="geometry">
            <mxPoint x="235" y="370" as="sourcePoint" />
            <mxPoint x="285" y="320" as="targetPoint" />
          </mxGeometry>
        </mxCell>
        <mxCell id="N0fvEVufpxiPiTohuX0A-35" value="" style="endArrow=classic;startArrow=classic;html=1;rounded=0;entryX=1;entryY=0.5;entryDx=0;entryDy=0;exitX=0.165;exitY=0.363;exitDx=0;exitDy=0;exitPerimeter=0;" edge="1" parent="1" source="N0fvEVufpxiPiTohuX0A-20" target="N0fvEVufpxiPiTohuX0A-14">
          <mxGeometry width="50" height="50" relative="1" as="geometry">
            <mxPoint x="200" y="390" as="sourcePoint" />
            <mxPoint x="250" y="340" as="targetPoint" />
          </mxGeometry>
        </mxCell>
        <mxCell id="N0fvEVufpxiPiTohuX0A-36" value="" style="endArrow=classic;startArrow=classic;html=1;rounded=0;exitX=0;exitY=0.5;exitDx=0;exitDy=0;startSize=5;strokeWidth=1;endSize=5;" edge="1" parent="1" source="N0fvEVufpxiPiTohuX0A-13" target="N0fvEVufpxiPiTohuX0A-20">
          <mxGeometry width="50" height="50" relative="1" as="geometry">
            <mxPoint x="160" y="510" as="sourcePoint" />
            <mxPoint x="210" y="460" as="targetPoint" />
          </mxGeometry>
        </mxCell>
        <mxCell id="N0fvEVufpxiPiTohuX0A-37" value="" style="endArrow=classic;startArrow=classic;html=1;rounded=0;entryX=0.5;entryY=1;entryDx=0;entryDy=0;exitX=0.5;exitY=0;exitDx=0;exitDy=0;" edge="1" parent="1" source="N0fvEVufpxiPiTohuX0A-12" target="N0fvEVufpxiPiTohuX0A-20">
          <mxGeometry width="50" height="50" relative="1" as="geometry">
            <mxPoint x="230" y="470" as="sourcePoint" />
            <mxPoint x="280" y="420" as="targetPoint" />
          </mxGeometry>
        </mxCell>
        <mxCell id="N0fvEVufpxiPiTohuX0A-38" value="Shared&amp;nbsp;" style="rounded=1;whiteSpace=wrap;html=1;" vertex="1" parent="1">
          <mxGeometry x="320" y="395" width="100" height="30" as="geometry" />
        </mxCell>
        <mxCell id="N0fvEVufpxiPiTohuX0A-39" value="" style="endArrow=classic;startArrow=classic;html=1;rounded=0;exitX=1;exitY=0.5;exitDx=0;exitDy=0;entryX=0;entryY=0.5;entryDx=0;entryDy=0;" edge="1" parent="1" source="N0fvEVufpxiPiTohuX0A-20" target="N0fvEVufpxiPiTohuX0A-38">
          <mxGeometry width="50" height="50" relative="1" as="geometry">
            <mxPoint x="270" y="480" as="sourcePoint" />
            <mxPoint x="320" y="430" as="targetPoint" />
          </mxGeometry>
        </mxCell>
        <mxCell id="N0fvEVufpxiPiTohuX0A-42" value="Rating" style="rounded=1;whiteSpace=wrap;html=1;" vertex="1" parent="1">
          <mxGeometry x="230" y="540" width="100" height="30" as="geometry" />
        </mxCell>
        <mxCell id="N0fvEVufpxiPiTohuX0A-49" value="Change" style="rounded=1;whiteSpace=wrap;html=1;" vertex="1" parent="1">
          <mxGeometry x="620" y="320" width="70" height="20" as="geometry" />
        </mxCell>
        <mxCell id="N0fvEVufpxiPiTohuX0A-50" value="Add" style="rounded=1;whiteSpace=wrap;html=1;" vertex="1" parent="1">
          <mxGeometry x="620" y="350" width="70" height="20" as="geometry" />
        </mxCell>
        <mxCell id="N0fvEVufpxiPiTohuX0A-51" value="Shuffle" style="rounded=1;whiteSpace=wrap;html=1;" vertex="1" parent="1">
          <mxGeometry x="610" y="405" width="70" height="20" as="geometry" />
        </mxCell>
        <mxCell id="N0fvEVufpxiPiTohuX0A-62" style="edgeStyle=orthogonalEdgeStyle;rounded=0;orthogonalLoop=1;jettySize=auto;html=1;entryX=0;entryY=0.5;entryDx=0;entryDy=0;" edge="1" parent="1" source="N0fvEVufpxiPiTohuX0A-55" target="N0fvEVufpxiPiTohuX0A-51">
          <mxGeometry relative="1" as="geometry" />
        </mxCell>
        <mxCell id="N0fvEVufpxiPiTohuX0A-64" style="edgeStyle=orthogonalEdgeStyle;rounded=0;orthogonalLoop=1;jettySize=auto;html=1;entryX=0;entryY=0.5;entryDx=0;entryDy=0;" edge="1" parent="1" source="N0fvEVufpxiPiTohuX0A-55" target="N0fvEVufpxiPiTohuX0A-57">
          <mxGeometry relative="1" as="geometry" />
        </mxCell>
        <mxCell id="N0fvEVufpxiPiTohuX0A-55" value="Planner" style="rounded=1;whiteSpace=wrap;html=1;" vertex="1" parent="1">
          <mxGeometry x="470" y="420" width="85" height="30" as="geometry" />
        </mxCell>
        <mxCell id="N0fvEVufpxiPiTohuX0A-60" style="edgeStyle=orthogonalEdgeStyle;rounded=0;orthogonalLoop=1;jettySize=auto;html=1;entryX=0;entryY=0.5;entryDx=0;entryDy=0;" edge="1" parent="1" source="N0fvEVufpxiPiTohuX0A-56" target="N0fvEVufpxiPiTohuX0A-49">
          <mxGeometry relative="1" as="geometry">
            <Array as="points">
              <mxPoint x="580" y="365" />
              <mxPoint x="580" y="330" />
            </Array>
          </mxGeometry>
        </mxCell>
        <mxCell id="N0fvEVufpxiPiTohuX0A-61" style="edgeStyle=orthogonalEdgeStyle;rounded=0;orthogonalLoop=1;jettySize=auto;html=1;entryX=0;entryY=0.5;entryDx=0;entryDy=0;" edge="1" parent="1" source="N0fvEVufpxiPiTohuX0A-56" target="N0fvEVufpxiPiTohuX0A-50">
          <mxGeometry relative="1" as="geometry">
            <Array as="points">
              <mxPoint x="580" y="365" />
              <mxPoint x="580" y="360" />
            </Array>
          </mxGeometry>
        </mxCell>
        <mxCell id="N0fvEVufpxiPiTohuX0A-56" value="Tasks" style="rounded=1;whiteSpace=wrap;html=1;" vertex="1" parent="1">
          <mxGeometry x="470" y="350" width="77.5" height="30" as="geometry" />
        </mxCell>
        <mxCell id="N0fvEVufpxiPiTohuX0A-57" value="Create day" style="rounded=1;whiteSpace=wrap;html=1;" vertex="1" parent="1">
          <mxGeometry x="610" y="440" width="70" height="20" as="geometry" />
        </mxCell>
        <mxCell id="N0fvEVufpxiPiTohuX0A-72" style="edgeStyle=orthogonalEdgeStyle;rounded=0;orthogonalLoop=1;jettySize=auto;html=1;entryX=0;entryY=0.5;entryDx=0;entryDy=0;startSize=0;endSize=0;" edge="1" parent="1" source="N0fvEVufpxiPiTohuX0A-67" target="N0fvEVufpxiPiTohuX0A-49">
          <mxGeometry relative="1" as="geometry">
            <Array as="points">
              <mxPoint x="580" y="325" />
              <mxPoint x="580" y="330" />
            </Array>
          </mxGeometry>
        </mxCell>
        <mxCell id="N0fvEVufpxiPiTohuX0A-67" value="Day view" style="rounded=1;whiteSpace=wrap;html=1;" vertex="1" parent="1">
          <mxGeometry x="470" y="310" width="80" height="30" as="geometry" />
        </mxCell>
      </root>
    </mxGraphModel>
  </diagram>
</mxfile>
